<?xml version="1.0" encoding="utf-8"?>
<!-- Generator: Adobe Illustrator 27.4.0, SVG Export Plug-In . SVG Version: 6.00 Build 0)  -->
<svg version="1.1" id="Layer_1" xmlns="http://www.w3.org/2000/svg" xmlns:xlink="http://www.w3.org/1999/xlink" x="0px" y="0px"
	 viewBox="0 0 1000 1000" style="enable-background:new 0 0 1000 1000;" xml:space="preserve">
<style type="text/css">
	.st0{fill:#FFFFFF;}
</style>
<path class="st0" d="M790.9,828.6l191.9-332.4c8.3-14.4,8.3-32.1,0-46.5l-69.8-120.9c-8.3-14.4-23.6-23.2-40.2-23.2l-249.6,0v0
	l-174.5,0l-59.1,102.3l-26.9-46.5l49-84.9c6.2-10.8,17.7-17.4,30.2-17.4h204.1c2.5,0,4.8-1.3,6-3.5l29.5-51.1
	c2.7-4.6-0.7-10.5-6-10.5l-264.5,0c-16.6,0-32,8.9-40.3,23.3L325,296.3l-26.8-46.5l49-84.9c6.2-10.8,17.7-17.4,30.2-17.4l352.9,0
	c7.1,18.5,20.4,34.8,38.9,45.5c13.9,8,29.3,12.1,44.9,12.1c7.8,0,15.7-1,23.5-3.1c23.2-6.3,42.6-21.2,54.7-42
	c12-20.8,15.2-45.1,9-68.3c-6.2-23.2-21.1-42.7-42-54.7c-43-24.8-98.2-10-123,33c-2.3,4-4.3,8.2-5.9,12.4H346.6
	c-16.6,0-32,8.9-40.3,23.2l-69.8,120.9c-8.3,14.4-8.3,32.1,0,46.5L351.9,473l9.4,16.3l87.3,151.2l118.1,0l-26.8,46.5h-98
	c-12.5,0-24-6.6-30.2-17.4l-102-176.7c-1.2-2.2-3.5-3.5-6-3.5h-59c-5.4,0-8.7,5.8-6,10.5l132.3,229c8.3,14.4,23.6,23.2,40.2,23.2
	l91.3,0l-26.8,46.5l-98,0c-12.5,0-24-6.6-30.2-17.4L170.8,475.3c6.3-7.7,11.2-16.5,14.7-26c3.8-10.5,5.7-21.9,5.2-33.7
	c-1.6-45.2-37.4-82.8-82.5-86.5c-53-4.3-97.6,37.6-97.6,89.7c0,49.6,40.4,90,90,90c4.6,0,9.2-0.4,13.7-1.1l191.9,332.4
	c8.3,14.4,23.7,23.2,40.3,23.2l139.6,0c16.6,0,31.9-8.9,40.3-23.2l124.8-216.2L738.5,473l-59.1-102.4l53.7,0l49,84.9
	c6.2,10.8,6.2,24.1,0,34.9L665.4,692.7c-2.7,4.6,0.7,10.5,6,10.5h59c2.5,0,4.8-1.3,6-3.5L854,496.2c8.3-14.4,8.3-32.1,0-46.5
	l-45.7-79.1l53.7,0l49,84.9c6.2,10.8,6.2,24.1,0,34.9L734.5,796c-4.7-0.7-9.4-1.1-14.1-1.1c-15.6,0-31,4.1-44.9,12.1
	c-20.8,12-35.7,31.4-41.9,54.7c-6.3,23.3-3,47.5,9,68.3c12.1,20.8,31.5,35.7,54.7,42c7.7,2,15.6,3.1,23.5,3.1
	c15.6,0,31-4.1,44.8-12.1c43-24.8,57.8-80,33-123C796.3,835.9,793.7,832.1,790.9,828.6z M814.3,75.6c21.8,0,39.5,17.7,39.5,39.5
	s-17.7,39.5-39.5,39.5c-21.8,0-39.5-17.7-39.5-39.5S792.5,75.6,814.3,75.6z M100.7,458.4c-21.8,0-39.5-17.7-39.5-39.5
	c0-21.8,17.7-39.5,39.5-39.5s39.5,17.7,39.5,39.5C140.2,440.7,122.5,458.4,100.7,458.4z M592.9,575.3h-95.4
	c-7.1,0-13.6-3.8-17.1-9.9l-47.7-82.6c-3.5-6.1-3.5-13.6,0-19.8l47.7-82.6c3.5-6.1,10-9.9,17.1-9.9h95.4c7.1,0,13.6,3.8,17.1,9.9
	l47.7,82.6c3.5,6.1,3.5,13.6,0,19.8L610,565.4C606.4,571.6,599.9,575.3,592.9,575.3z M720.6,924.4c-21.8,0-39.5-17.7-39.5-39.5
	c0-21.8,17.7-39.5,39.5-39.5c21.8,0,39.5,17.7,39.5,39.5C760.1,906.7,742.4,924.4,720.6,924.4z"/>
<g>
</g>
<g>
</g>
<g>
</g>
<g>
</g>
<g>
</g>
<g>
</g>
<g>
</g>
<g>
</g>
<g>
</g>
<g>
</g>
<g>
</g>
<g>
</g>
<g>
</g>
<g>
</g>
<g>
</g>
</svg>
