<?xml version="1.0" encoding="utf-8"?>
<!-- Generator: Adobe Illustrator 27.4.0, SVG Export Plug-In . SVG Version: 6.00 Build 0)  -->
<svg version="1.1" id="Layer_1" xmlns="http://www.w3.org/2000/svg" xmlns:xlink="http://www.w3.org/1999/xlink" x="0px" y="0px"
	 viewBox="0 0 1074 302" style="enable-background:new 0 0 1074 302;" xml:space="preserve">
<style type="text/css">
	.st0{fill:#004F75;}
	.st1{fill:#FFFFFF;}
</style>
<g>
	<path class="st0" d="M234.5,244.1l54.4-94.2c2.4-4.1,2.4-9.1,0-13.2l-19.8-34.3c-2.4-4.1-6.7-6.6-11.4-6.6l-70.7,0v0l-49.5,0
		l-16.7,29l-7.6-13.2l13.9-24.1c1.8-3.1,5-4.9,8.6-4.9h57.8c0.7,0,1.4-0.4,1.7-1l8.4-14.5c0.8-1.3-0.2-3-1.7-3l-74.9,0
		c-4.7,0-9.1,2.5-11.4,6.6l-12.9,22.4l-7.6-13.2L108.8,56c1.8-3.1,5-4.9,8.6-4.9l100,0c2,5.3,5.8,9.9,11,12.9
		c3.9,2.3,8.3,3.4,12.7,3.4c2.2,0,4.4-0.3,6.6-0.9c6.6-1.8,12.1-6,15.5-11.9c3.4-5.9,4.3-12.8,2.5-19.4c-1.8-6.6-6-12.1-11.9-15.5
		c-12.2-7-27.8-2.8-34.9,9.3c-0.7,1.1-1.2,2.3-1.7,3.5H108.6c-4.7,0-9.1,2.5-11.4,6.6L77.4,73.5c-2.4,4.1-2.4,9.1,0,13.2l32.7,56.6
		l2.7,4.6l24.7,42.8l33.5,0l-7.6,13.2h-27.8c-3.5,0-6.8-1.9-8.6-4.9l-28.9-50.1c-0.4-0.6-1-1-1.7-1H79.7c-1.5,0-2.5,1.6-1.7,3
		l37.5,64.9c2.4,4.1,6.7,6.6,11.4,6.6l25.9,0l-7.6,13.2l-27.8,0c-3.5,0-6.8-1.9-8.6-4.9l-50-86.6c1.8-2.2,3.2-4.7,4.2-7.4
		c1.1-3,1.6-6.2,1.5-9.6c-0.5-12.8-10.6-23.5-23.4-24.5c-15-1.2-27.6,10.7-27.6,25.4c0,14.1,11.4,25.5,25.5,25.5
		c1.3,0,2.6-0.1,3.9-0.3l54.4,94.2c2.4,4.1,6.7,6.6,11.4,6.6l39.6,0c4.7,0,9.1-2.5,11.4-6.6l35.4-61.3l24.7-42.8l-16.8-29l15.2,0
		l13.9,24.1c1.8,3.1,1.8,6.8,0,9.9L199,205.6c-0.8,1.3,0.2,3,1.7,3h16.7c0.7,0,1.4-0.4,1.7-1l33.3-57.7c2.4-4.1,2.4-9.1,0-13.2
		l-12.9-22.4l15.2,0l13.9,24c1.8,3.1,1.8,6.8,0,9.9l-50,86.6c-1.3-0.2-2.7-0.3-4-0.3c-4.4,0-8.8,1.2-12.7,3.4
		c-5.9,3.4-10.1,8.9-11.9,15.5c-1.8,6.6-0.9,13.5,2.5,19.4c3.4,5.9,8.9,10.1,15.5,11.9c2.2,0.6,4.4,0.9,6.6,0.9
		c4.4,0,8.8-1.2,12.7-3.4c12.2-7,16.4-22.7,9.3-34.9C236.1,246.2,235.3,245.1,234.5,244.1z M241.2,30.7c6.2,0,11.2,5,11.2,11.2
		s-5,11.2-11.2,11.2c-6.2,0-11.2-5-11.2-11.2S235,30.7,241.2,30.7z M39,139.2c-6.2,0-11.2-5-11.2-11.2c0-6.2,5-11.2,11.2-11.2
		s11.2,5,11.2,11.2C50.1,134.2,45.1,139.2,39,139.2z M178.4,172.3h-27c-2,0-3.8-1.1-4.8-2.8L133,146.1c-1-1.7-1-3.9,0-5.6l13.5-23.4
		c1-1.7,2.8-2.8,4.8-2.8h27c2,0,3.8,1.1,4.8,2.8l13.5,23.4c1,1.7,1,3.9,0,5.6l-13.5,23.4C182.3,171.3,180.4,172.3,178.4,172.3z
		 M214.6,271.3c-6.2,0-11.2-5-11.2-11.2c0-6.2,5-11.2,11.2-11.2c6.2,0,11.2,5,11.2,11.2C225.8,266.3,220.8,271.3,214.6,271.3z"/>
	<g>
		<path class="st1" d="M520.3,191c0,6.9-1.5,13.4-4.4,19.5c-2.9,6.1-7.6,11.3-14.2,15.8c-6.5,4.4-15,8-25.4,10.5
			c-10.4,2.6-23.2,3.9-38.4,3.9c-8.6,0-16.9-0.6-25.1-1.9c-8.2-1.3-15.9-3.1-23.3-5.6c-7.4-2.4-14.1-5.4-20.4-8.8
			c-6.2-3.5-11.6-7.3-16.1-11.5l12.1-14.5c9.2,7.9,19.9,13.9,32.2,18.1c12.3,4.1,25.8,6.2,40.5,6.2c16.3,0,27.9-2.3,34.7-6.8
			c6.8-4.5,10.2-10.7,10.2-18.7c0-6.1-2.7-11.3-8-15.5c-5.3-4.2-14.4-8.3-27.1-12.4l-46-14.5c-15.2-4.8-26.7-11-34.4-18.5
			c-7.8-7.5-11.6-17.1-11.6-28.7c0-6,1.4-11.8,4.2-17.3c2.8-5.6,7.2-10.5,13.2-14.8c6-4.3,13.6-7.7,22.9-10.2
			c9.3-2.5,20.5-3.8,33.6-3.8c7.9,0,15.8,0.6,23.6,1.9c7.8,1.3,15.3,3.1,22.5,5.6c7.2,2.4,13.9,5.4,20.1,8.8
			c6.2,3.5,11.6,7.3,16.1,11.5l-12.1,14.5c-9.2-7.9-19.5-13.9-31-18.1c-11.5-4.1-24.6-6.2-39.3-6.2c-12.1,0-21.2,2.1-27.3,6.3
			c-6.1,4.2-9.1,9.4-9.1,15.5c0,3.4,0.6,6.3,1.7,8.8c1.1,2.5,3,4.8,5.7,7c2.7,2.2,6.2,4.2,10.5,6.1c4.4,1.9,9.8,3.8,16.2,5.9
			l45.8,14.5c14.7,4.7,26.2,10.8,34.7,18.4C516.1,169.7,520.3,179.4,520.3,191z"/>
		<path class="st1" d="M612.3,105c10.8,0,20.8,1.5,29.9,4.5c9.1,3,16.9,7.4,23.4,13.1c6.5,5.7,11.5,12.8,15.1,21.3
			c3.6,8.5,5.5,18.1,5.5,29c0,11-1.8,20.7-5.5,29.1c-3.6,8.4-8.7,15.5-15.1,21.2c-6.5,5.7-14.3,10.1-23.4,13.1
			c-9.1,3-19.1,4.5-29.9,4.5c-11,0-21-1.5-30-4.5c-9-3-16.8-7.3-23.3-13.1c-6.5-5.7-11.5-12.8-15.1-21.2c-3.6-8.4-5.5-18.1-5.5-29.1
			c0-10.8,1.8-20.5,5.5-29c3.6-8.5,8.7-15.6,15.1-21.3c6.5-5.7,14.2-10.1,23.3-13.1C591.3,106.5,601.4,105,612.3,105z M612.3,224.9
			c5.2,0,10-1,14.5-2.9c4.5-1.9,8.5-5,11.9-9.1c3.4-4.1,6.1-9.5,8.1-16.1c2-6.6,3-14.6,3-24c0-9.4-1-17.4-3-24
			c-2-6.6-4.7-12-8.1-16.1c-3.4-4.1-7.4-7.1-11.9-9.1c-4.5-1.9-9.4-2.9-14.5-2.9c-5.2,0-10,1-14.5,2.9c-4.5,1.9-8.5,5-11.9,9.1
			c-3.4,4.1-6.1,9.5-8.1,16.1c-2,6.6-3,14.6-3,24c0,9.4,1,17.4,3,24c2,6.6,4.7,12,8.1,16.1s7.3,7.1,11.9,9.1
			C602.3,223.9,607.2,224.9,612.3,224.9z"/>
		<path class="st1" d="M841.1,235.8h-33.9v-76.3c0-11.6-2.9-20-8.7-25.1c-5.8-5.1-14.2-7.6-25.2-7.6h-31.5v109h-33.9v-126h65.4
			c23.1,0,40.2,4.2,51.2,12.5c11.1,8.3,16.6,20.7,16.6,37.2V235.8z"/>
		<path class="st1" d="M899.8,79.5c0,4.8-1.7,9.1-5,12.7c-3.3,3.6-7.7,5.5-13.2,5.5c-5.5,0-9.9-1.8-13.2-5.5c-3.3-3.6-5-7.9-5-12.7
			s1.7-9.1,5-12.7c3.3-3.6,7.7-5.5,13.2-5.5c5.3,0,9.7,1.8,13.1,5.5C898.2,70.4,899.8,74.7,899.8,79.5z M898.6,235.8h-33.9V112.2
			h33.9V235.8z"/>
		<path class="st1" d="M1007.2,172.1l53.3,63.7h-38.8l-33.9-40.5l-33.9,40.5h-38.8l53.3-63.7l-52.1-62.3h38.8l32.7,39.3l32.7-39.3
			h38.8L1007.2,172.1z"/>
	</g>
</g>
<g>
</g>
<g>
</g>
<g>
</g>
<g>
</g>
<g>
</g>
<g>
</g>
<g>
</g>
<g>
</g>
<g>
</g>
<g>
</g>
<g>
</g>
<g>
</g>
<g>
</g>
<g>
</g>
<g>
</g>
</svg>
